<svg width="45" height="33" viewBox="0 0 45 33" fill="none" xmlns="http://www.w3.org/2000/svg">
<mask id="path-1-outside-1_605_2" maskUnits="userSpaceOnUse" x="0.57969" y="-11.4202" width="43.8406" height="43.8406" fill="black">
<rect fill="white" x="0.57969" y="-11.4202" width="43.8406" height="43.8406"/>
<path fill-rule="evenodd" clip-rule="evenodd" d="M17.1967 22.8744L22.5 28.1777L27.8033 22.8744L40.1777 10.5001L34.8744 5.19676L22.5 17.5711L10.1256 5.19676L4.82233 10.5001L17.1967 22.8744Z"/>
</mask>
<path fill-rule="evenodd" clip-rule="evenodd" d="M17.1967 22.8744L22.5 28.1777L27.8033 22.8744L40.1777 10.5001L34.8744 5.19676L22.5 17.5711L10.1256 5.19676L4.82233 10.5001L17.1967 22.8744Z" fill="black"/>
<path d="M22.5 28.1777L20.3787 30.2991L22.5 32.4204L24.6213 30.2991L22.5 28.1777ZM40.1777 10.5001L42.299 12.6214L44.4203 10.5001L42.299 8.37874L40.1777 10.5001ZM34.8744 5.19676L36.9957 3.07544L34.8744 0.954124L32.753 3.07544L34.8744 5.19676ZM22.5 17.5711L20.3787 19.6925L22.5 21.8138L24.6213 19.6925L22.5 17.5711ZM10.1256 5.19676L12.247 3.07544L10.1256 0.954124L8.00431 3.07544L10.1256 5.19676ZM4.82233 10.5001L2.70101 8.37874L0.57969 10.5001L2.70101 12.6214L4.82233 10.5001ZM24.6213 26.0564L19.318 20.7531L15.0754 24.9958L20.3787 30.2991L24.6213 26.0564ZM25.682 20.7531L20.3787 26.0564L24.6213 30.2991L29.9246 24.9958L25.682 20.7531ZM38.0563 8.37874L25.682 20.7531L29.9246 24.9958L42.299 12.6214L38.0563 8.37874ZM32.753 7.31808L38.0563 12.6214L42.299 8.37874L36.9957 3.07544L32.753 7.31808ZM24.6213 19.6925L36.9957 7.31808L32.753 3.07544L20.3787 15.4498L24.6213 19.6925ZM8.00431 7.31808L20.3787 19.6925L24.6213 15.4498L12.247 3.07544L8.00431 7.31808ZM6.94365 12.6214L12.247 7.31808L8.00431 3.07544L2.70101 8.37874L6.94365 12.6214ZM19.318 20.7531L6.94365 8.37874L2.70101 12.6214L15.0754 24.9958L19.318 20.7531Z" fill="white" mask="url(#path-1-outside-1_605_2)"/>
</svg>
