<svg width="87" height="87" viewBox="0 0 87 87" fill="none" xmlns="http://www.w3.org/2000/svg">
<mask id="path-1-outside-1_761_308" maskUnits="userSpaceOnUse" x="0" y="0" width="87" height="87" fill="black">
<rect fill="white" width="87" height="87"/>
<path fill-rule="evenodd" clip-rule="evenodd" d="M81 6V21V56H66V31.3673L31.3673 66H56V81H21H6L5.99997 70.1541L6 66V31L21 31V55.1541L55.1541 21H31V6L66 6H81Z"/>
</mask>
<path fill-rule="evenodd" clip-rule="evenodd" d="M81 6V21V56H66V31.3673L31.3673 66H56V81H21H6L5.99997 70.1541L6 66V31L21 31V55.1541L55.1541 21H31V6L66 6H81Z" fill="black"/>
<path d="M81 6H87V0H81V6ZM81 56V62H87V56H81ZM66 56H60V62H66V56ZM66 31.3673H72V16.882L61.7574 27.1247L66 31.3673ZM31.3673 66L27.1247 61.7574L16.882 72H31.3673V66ZM56 66H62V60H56V66ZM56 81V87H62V81H56ZM6 81L0 81L1.68825e-05 87H6V81ZM5.99997 70.1541L-3.05177e-05 70.1541L-3.05176e-05 70.1542L5.99997 70.1541ZM6 66L12 66V66H6ZM6 31V25H0V31H6ZM21 31H27V25H21V31ZM21 55.1541H15V69.6394L25.2426 59.3968L21 55.1541ZM55.1541 21L59.3967 25.2426L69.6394 15H55.1541V21ZM31 21H25V27H31V21ZM31 6V0H25V6H31ZM87 21V6H75V21H87ZM87 56V21H75V56H87ZM66 62H81V50H66V62ZM60 31.3673V56H72V31.3673H60ZM35.61 70.2426L70.2426 35.61L61.7574 27.1247L27.1247 61.7574L35.61 70.2426ZM56 60H31.3673V72H56V60ZM62 81V66H50V81H62ZM21 87H56V75H21V87ZM21 75H6V87H21V75ZM-3.05176e-05 70.1542L0 81L12 81L12 70.1541L-3.05176e-05 70.1542ZM1.61904e-10 66L-3.05174e-05 70.1541L12 70.1542L12 66L1.61904e-10 66ZM12 66V31H0V66H12ZM6 37H21V25L6 25V37ZM15 31V55.1541H27V31L15 31ZM50.9115 16.7574L16.7574 50.9115L25.2426 59.3968L59.3967 25.2426L50.9115 16.7574ZM31 27H55.1541V15L31 15V27ZM25 6V21H37V6L25 6ZM66 0L31 0V12L66 12V0ZM81 0H66V12H81V0Z" fill="white" mask="url(#path-1-outside-1_761_308)"/>
</svg>
