<svg width="83" height="83" viewBox="0 0 83 83" fill="none" xmlns="http://www.w3.org/2000/svg">
<mask id="path-1-outside-1_766_312" maskUnits="userSpaceOnUse" x="0" y="0" width="83" height="83" fill="black">
<rect fill="white" width="83" height="83"/>
<path fill-rule="evenodd" clip-rule="evenodd" d="M79 4V14V44H69V20.6404L20.6404 69H44V79H14H4V69V39H14V61.4982L61.4982 14L39 14V4L69 4H79Z"/>
</mask>
<path fill-rule="evenodd" clip-rule="evenodd" d="M79 4V14V44H69V20.6404L20.6404 69H44V79H14H4V69V39H14V61.4982L61.4982 14L39 14V4L69 4H79Z" fill="black"/>
<path d="M79 4H83V0H79V4ZM79 44V48H83V44H79ZM69 44H65V48H69V44ZM69 20.6404H73V10.9835L66.1716 17.812L69 20.6404ZM20.6404 69L17.812 66.1716L10.9835 73H20.6404V69ZM44 69H48V65H44V69ZM44 79V83H48V79H44ZM4 79H0V83H4V79ZM4 39V35H0V39H4ZM14 39H18V35H14V39ZM14 61.4982H10V71.1551L16.8284 64.3267L14 61.4982ZM61.4982 14L64.3267 16.8284L71.1551 10H61.4982V14ZM39 14H35V18H39V14ZM39 4V0H35V4H39ZM83 14V4H75V14H83ZM83 44V14H75V44H83ZM69 48H79V40H69V48ZM65 20.6404V44H73V20.6404H65ZM23.4688 71.8284L71.8284 23.4688L66.1716 17.812L17.812 66.1716L23.4688 71.8284ZM44 65H20.6404V73H44V65ZM48 79V69H40V79H48ZM14 83H44V75H14V83ZM14 75H4V83H14V75ZM8 79V69H0V79H8ZM8 69V39H0V69H8ZM4 43H14V35H4V43ZM10 39V61.4982H18V39H10ZM58.6698 11.1716L11.1716 58.6698L16.8284 64.3267L64.3267 16.8284L58.6698 11.1716ZM39 18H61.4982V10H39V18ZM35 4V14H43V4H35ZM69 0L39 0V8H69V0ZM79 0L69 0V8H79V0Z" fill="white" mask="url(#path-1-outside-1_766_312)"/>
</svg>
