<svg width="102" height="102" viewBox="0 0 102 102" fill="none" xmlns="http://www.w3.org/2000/svg">
<mask id="path-1-outside-1_745_95" maskUnits="userSpaceOnUse" x="0" y="10" width="92" height="92" fill="black">
<rect fill="white" y="10" width="92" height="92"/>
<path fill-rule="evenodd" clip-rule="evenodd" d="M16 16H6L6 86V96H86V86V64H76V86H16L16 26H38V16H16Z"/>
</mask>
<path fill-rule="evenodd" clip-rule="evenodd" d="M16 16H6L6 86V96H86V86V64H76V86H16L16 26H38V16H16Z" fill="#1A281F"/>
<path d="M6 16V10H0V16H6ZM6 96H0V102H6V96ZM86 96V102H92V96H86ZM86 64H92V58H86V64ZM76 64V58H70V64H76ZM76 86V92H82V86H76ZM16 86H10L10 92H16V86ZM16 26V20H10V26H16ZM38 26V32H44V26H38ZM38 16H44V10H38V16ZM6 22H16V10H6V22ZM12 86L12 16H0L0 86H12ZM12 96V86H0V96H12ZM86 90H6V102H86V90ZM80 86V96H92V86H80ZM92 86V64H80V86H92ZM86 58H76V70H86V58ZM70 64V86H82V64H70ZM16 92H76V80H16V92ZM10 26L10 86H22V26H10ZM38 20H16V32H38V20ZM32 16V26H44V16H32ZM16 22H38V10H16V22Z" fill="white" mask="url(#path-1-outside-1_745_95)"/>
<mask id="path-3-outside-2_745_95" maskUnits="userSpaceOnUse" x="40" y="0" width="62" height="62" fill="black">
<rect fill="white" x="40" width="62" height="62"/>
<path fill-rule="evenodd" clip-rule="evenodd" d="M46 6L86 6H96V16V56H86V21.9857L53.3069 55.9999H46.0396V49.1329L77.8857 16H46V6Z"/>
</mask>
<path fill-rule="evenodd" clip-rule="evenodd" d="M46 6L86 6H96V16V56H86V21.9857L53.3069 55.9999H46.0396V49.1329L77.8857 16H46V6Z" fill="black"/>
<path d="M46 6V0H40V6H46ZM96 6H102V0H96V6ZM96 56V62H102V56H96ZM86 56H80V62H86V56ZM86 21.9857H92V7.08484L81.6742 17.8279L86 21.9857ZM53.3069 55.9999V61.9999H55.862L57.6327 60.1577L53.3069 55.9999ZM46.0396 55.9999H40.0396V61.9999H46.0396V55.9999ZM46.0396 49.1329L41.7138 44.9751L40.0396 46.717V49.1329H46.0396ZM77.8857 16L82.2115 20.1578L91.9748 10H77.8857V16ZM46 16H40V22H46V16ZM86 0L46 0V12L86 12V0ZM86 12H96V0H86V12ZM90 6V16H102V6H90ZM90 16V56H102V16H90ZM96 50H86V62H96V50ZM92 56V21.9857H80V56H92ZM57.6327 60.1577L90.3258 26.1435L81.6742 17.8279L48.981 51.8421L57.6327 60.1577ZM46.0396 61.9999H53.3069V49.9999H46.0396V61.9999ZM40.0396 49.1329V55.9999H52.0396V49.1329H40.0396ZM73.5599 11.8422L41.7138 44.9751L50.3654 53.2907L82.2115 20.1578L73.5599 11.8422ZM46 22H77.8857V10L46 10V22ZM40 6V16H52V6L40 6Z" fill="white" mask="url(#path-3-outside-2_745_95)"/>
</svg>
