<svg width="32" height="45" viewBox="0 0 32 45" fill="none" xmlns="http://www.w3.org/2000/svg">
<mask id="path-1-outside-1_1337_145" maskUnits="userSpaceOnUse" x="-12.2426" y="0.757423" width="43.8406" height="43.8406" fill="black">
<rect fill="white" x="-12.2426" y="0.757423" width="43.8406" height="43.8406"/>
<path fill-rule="evenodd" clip-rule="evenodd" d="M22.052 27.981L27.3553 22.6777L22.052 17.3744L9.67768 5.00006L4.37438 10.3034L16.7487 22.6777L4.37438 35.0521L9.67768 40.3554L22.052 27.981Z"/>
</mask>
<path fill-rule="evenodd" clip-rule="evenodd" d="M22.052 27.981L27.3553 22.6777L22.052 17.3744L9.67768 5.00006L4.37438 10.3034L16.7487 22.6777L4.37438 35.0521L9.67768 40.3554L22.052 27.981Z" fill="black"/>
<path d="M27.3553 22.6777L29.4767 24.7991L31.598 22.6777L29.4767 20.5564L27.3553 22.6777ZM22.052 17.3744L24.1734 15.2531L22.052 17.3744ZM9.67768 5.00006L11.799 2.87874L9.67768 0.757423L7.55636 2.87874L9.67768 5.00006ZM4.37438 10.3034L2.25306 8.18204L0.131737 10.3034L2.25306 12.4247L4.37438 10.3034ZM16.7487 22.6777L18.8701 24.7991L20.9914 22.6777L18.8701 20.5564L16.7487 22.6777ZM4.37438 35.0521L2.25306 32.9308L0.131735 35.0521L2.25306 37.1734L4.37438 35.0521ZM9.67768 40.3554L7.55636 42.4767L9.67768 44.598L11.799 42.4767L9.67768 40.3554ZM25.234 20.5564L19.9307 25.8597L24.1734 30.1024L29.4767 24.7991L25.234 20.5564ZM19.9307 19.4958L25.234 24.7991L29.4767 20.5564L24.1734 15.2531L19.9307 19.4958ZM7.55636 7.12138L19.9307 19.4958L24.1734 15.2531L11.799 2.87874L7.55636 7.12138ZM6.4957 12.4247L11.799 7.12138L7.55636 2.87874L2.25306 8.18204L6.4957 12.4247ZM18.8701 20.5564L6.4957 8.18204L2.25306 12.4247L14.6274 24.7991L18.8701 20.5564ZM6.4957 37.1734L18.8701 24.7991L14.6274 20.5564L2.25306 32.9308L6.4957 37.1734ZM11.799 38.2341L6.4957 32.9308L2.25306 37.1734L7.55636 42.4767L11.799 38.2341ZM19.9307 25.8597L7.55636 38.2341L11.799 42.4767L24.1734 30.1024L19.9307 25.8597Z" fill="white" mask="url(#path-1-outside-1_1337_145)"/>
</svg>
