<svg width="62" height="41" viewBox="0 0 62 41" fill="none" xmlns="http://www.w3.org/2000/svg">
<mask id="path-1-outside-1_443_62" maskUnits="userSpaceOnUse" x="0" y="0" width="62" height="41" fill="black">
<rect fill="white" width="62" height="41"/>
<path fill-rule="evenodd" clip-rule="evenodd" d="M10.2326 4.99983L5 10.2324L25.9305 31.1629L25.9303 31.1631L31.1629 36.3957L57.3258 10.2327L52.0932 5.00014L31.1631 25.9303L10.2326 4.99983Z"/>
</mask>
<path fill-rule="evenodd" clip-rule="evenodd" d="M10.2326 4.99983L5 10.2324L25.9305 31.1629L25.9303 31.1631L31.1629 36.3957L57.3258 10.2327L52.0932 5.00014L31.1631 25.9303L10.2326 4.99983Z" fill="black"/>
<path d="M5 10.2324L2.87868 8.1111L0.757359 10.2324L2.87868 12.3537L5 10.2324ZM10.2326 4.99983L12.3539 2.87851L10.2326 0.757191L8.11127 2.87851L10.2326 4.99983ZM25.9305 31.1629L28.0518 33.2842L30.1731 31.1629L28.0518 29.0416L25.9305 31.1629ZM25.9303 31.1631L23.809 29.0418L21.6877 31.1631L23.809 33.2844L25.9303 31.1631ZM31.1629 36.3957L29.0416 38.517L31.1629 40.6383L33.2842 38.517L31.1629 36.3957ZM57.3258 10.2327L59.4472 12.354L61.5685 10.2327L59.4472 8.1114L57.3258 10.2327ZM52.0932 5.00014L54.2146 2.87881L52.0932 0.757495L49.9719 2.87882L52.0932 5.00014ZM31.1631 25.9303L29.0418 28.0516L31.1631 30.173L33.2844 28.0516L31.1631 25.9303ZM7.12132 12.3537L12.3539 7.12115L8.11127 2.87851L2.87868 8.1111L7.12132 12.3537ZM28.0518 29.0416L7.12132 8.1111L2.87868 12.3537L23.8092 33.2842L28.0518 29.0416ZM28.0516 33.2844L28.0518 33.2842L23.8092 29.0416L23.809 29.0418L28.0516 33.2844ZM33.2842 34.2744L28.0516 29.0418L23.809 33.2844L29.0416 38.517L33.2842 34.2744ZM55.2045 8.11141L29.0416 34.2744L33.2842 38.517L59.4472 12.354L55.2045 8.11141ZM49.9719 7.12146L55.2045 12.354L59.4472 8.1114L54.2146 2.87881L49.9719 7.12146ZM33.2844 28.0516L54.2146 7.12146L49.9719 2.87882L29.0418 23.809L33.2844 28.0516ZM8.11127 7.12115L29.0418 28.0516L33.2844 23.809L12.3539 2.87851L8.11127 7.12115Z" fill="white" mask="url(#path-1-outside-1_443_62)"/>
</svg>
