<svg width="117" height="96" viewBox="0 0 117 96" fill="none" xmlns="http://www.w3.org/2000/svg">
<mask id="path-1-outside-1_758_240" maskUnits="userSpaceOnUse" x="0" y="14" width="92" height="82" fill="black">
<rect fill="white" y="14" width="92" height="82"/>
<path fill-rule="evenodd" clip-rule="evenodd" d="M31 20H6V30L6 80L6 90H16H86V87V80V30L31 30V20Z"/>
</mask>
<path fill-rule="evenodd" clip-rule="evenodd" d="M31 20H6V30L6 80L6 90H16H86V87V80V30L31 30V20Z" fill="black"/>
<path d="M6 20V14H0V20H6ZM31 20H37V14H31V20ZM6 90H0V96H6V90ZM86 90V96H92V90H86ZM86 30H92V24H86V30ZM31 30H25V36H31V30ZM6 26H31V14H6V26ZM12 30V20H0V30H12ZM0 30L0 80H12L12 30H0ZM0 80L0 90H12L12 80H0ZM6 96H16V84H6L6 96ZM16 96H86V84H16V96ZM92 90V87H80V90H92ZM92 87V80H80V87H92ZM92 80V30L80 30V80H92ZM86 24L31 24V36H86V24ZM25 20V30H37V20H25Z" fill="white" mask="url(#path-1-outside-1_758_240)"/>
<rect x="71.3143" y="3.84514" width="44" height="54" transform="rotate(20 71.3143 3.84514)" fill="#1A281F" stroke="white" stroke-width="6"/>
<rect x="77.9751" y="14.7827" width="25" height="5" transform="rotate(20 77.9751 14.7827)" fill="white"/>
<rect x="74.5549" y="24.1797" width="25" height="5" transform="rotate(20 74.5549 24.1797)" fill="white"/>
<rect x="71.1345" y="33.5771" width="25" height="5" transform="rotate(20 71.1345 33.5771)" fill="white"/>
<mask id="path-7-outside-2_758_240" maskUnits="userSpaceOnUse" x="0" y="49" width="115" height="47" fill="black">
<rect fill="white" y="49" width="115" height="47"/>
<path fill-rule="evenodd" clip-rule="evenodd" d="M102.5 60.7376H102.5L92.5001 84.2618L90.0001 89.9995H10L12.5001 84.2618H12.5003L22.5001 60.7376L25.0001 55H105L102.5 60.7376Z"/>
</mask>
<path fill-rule="evenodd" clip-rule="evenodd" d="M102.5 60.7376H102.5L92.5001 84.2618L90.0001 89.9995H10L12.5001 84.2618H12.5003L22.5001 60.7376L25.0001 55H105L102.5 60.7376Z" fill="#1A281F"/>
<path d="M102.5 60.7376V54.7376H98.5309L96.9782 58.3904L102.5 60.7376ZM102.5 60.7376V66.7376H106.431L108.001 63.1343L102.5 60.7376ZM92.5001 84.2618L98.0007 86.6585L98.0114 86.6338L98.0219 86.6091L92.5001 84.2618ZM90.0001 89.9995V95.9995H93.9306L95.5007 92.3962L90.0001 89.9995ZM10 89.9995L4.4995 87.6027L0.840722 95.9995H10V89.9995ZM12.5001 84.2618V78.2618H8.56968L6.99962 81.865L12.5001 84.2618ZM12.5003 84.2618L12.5003 90.2618H16.4694L18.0221 86.6091L12.5003 84.2618ZM22.5001 60.7376L16.9996 58.341L16.9888 58.3656L16.9783 58.3904L22.5001 60.7376ZM25.0001 55V49H21.0696L19.4996 52.6033L25.0001 55ZM105 55L110.501 57.3967L114.159 49H105V55ZM102.5 66.7376H102.5V54.7376H102.5V66.7376ZM98.0219 86.6091L108.022 63.0849L96.9782 58.3904L86.9783 81.9146L98.0219 86.6091ZM95.5007 92.3962L98.0007 86.6585L86.9996 81.8651L84.4996 87.6028L95.5007 92.3962ZM10 95.9995H90.0001V83.9995H10V95.9995ZM6.99962 81.865L4.4995 87.6027L15.5005 92.3963L18.0006 86.6586L6.99962 81.865ZM12.5003 78.2618H12.5001L12.5001 90.2618H12.5003L12.5003 78.2618ZM16.9783 58.3904L6.97847 81.9146L18.0221 86.6091L28.0219 63.0849L16.9783 58.3904ZM19.4996 52.6033L16.9996 58.341L28.0006 63.1343L30.5006 57.3967L19.4996 52.6033ZM105 49H25.0001V61H105V49ZM108.001 63.1343L110.501 57.3967L99.4996 52.6033L96.9996 58.341L108.001 63.1343Z" fill="white" mask="url(#path-7-outside-2_758_240)"/>
</svg>
