<svg width="111" height="82" viewBox="0 0 111 82" fill="none" xmlns="http://www.w3.org/2000/svg">
<mask id="path-1-outside-1_758_228" maskUnits="userSpaceOnUse" x="0" y="0" width="92" height="82" fill="black">
<rect fill="white" width="92" height="82"/>
<path fill-rule="evenodd" clip-rule="evenodd" d="M31 6L6 6V16L6 66L6 76H16H86V66H16L16 26L86 26V16L31 16V6Z"/>
</mask>
<path fill-rule="evenodd" clip-rule="evenodd" d="M31 6L6 6V16L6 66L6 76H16H86V66H16L16 26L86 26V16L31 16V6Z" fill="black"/>
<path d="M6 6V0H0V6H6ZM31 6H37V0H31V6ZM6 76H0V82H6V76ZM86 76V82H92V76H86ZM86 66H92V60H86V66ZM16 66H10V72H16V66ZM16 26V20H10V26H16ZM86 26V32H92V26H86ZM86 16H92V10H86V16ZM31 16H25V22H31V16ZM6 12H31V0L6 0V12ZM12 16V6H0V16H12ZM12 66L12 16H0L0 66H12ZM12 76L12 66H0L0 76H12ZM16 70H6L6 82H16V70ZM86 70H16V82H86V70ZM80 66V76H92V66H80ZM16 72H86V60H16V72ZM10 26L10 66H22V26H10ZM86 20L16 20V32H86V20ZM80 16V26H92V16L80 16ZM31 22L86 22V10L31 10V22ZM25 6V16H37V6H25Z" fill="white" mask="url(#path-1-outside-1_758_228)"/>
<mask id="path-3-outside-2_758_228" maskUnits="userSpaceOnUse" x="0" y="9" width="111" height="73" fill="black">
<rect fill="white" y="9" width="111" height="73"/>
<path fill-rule="evenodd" clip-rule="evenodd" d="M95.5556 24.9999H100.5L103 15L23.0001 15L20.5001 24.9999L10.5001 65.9997V65.9999L8 75.9997H88.0001L90.5001 66V65.9997L100.5 25H95.5555L95.5556 24.9999Z"/>
</mask>
<path fill-rule="evenodd" clip-rule="evenodd" d="M95.5556 24.9999H100.5L103 15L23.0001 15L20.5001 24.9999L10.5001 65.9997V65.9999L8 75.9997H88.0001L90.5001 66V65.9997L100.5 25H95.5555L95.5556 24.9999Z" fill="#1A281F"/>
<path d="M95.5556 24.9999V18.9999H90.5414L89.6509 23.9344L95.5556 24.9999ZM100.5 24.9999V30.9999H105.185L106.321 26.4551L100.5 24.9999ZM103 15L108.821 16.4552L110.685 9H103V15ZM23.0001 15V9H18.3155L17.1793 13.5448L23.0001 15ZM20.5001 24.9999L14.6793 23.5447L14.6751 23.5614L14.671 23.5782L20.5001 24.9999ZM10.5001 65.9997L4.671 64.578L4.50012 65.2786V65.9997H10.5001ZM10.5001 65.9999L16.321 67.4552L16.5001 66.7386V65.9999H10.5001ZM8 75.9997L2.17917 74.5444L0.31522 81.9997H8L8 75.9997ZM88.0001 75.9997V81.9997H92.6847L93.821 77.455L88.0001 75.9997ZM90.5001 66L96.321 67.4553L96.5001 66.7387V66H90.5001ZM90.5001 65.9997L84.671 64.578L84.5001 65.2786V65.9997H90.5001ZM100.5 25L106.329 26.4218L108.139 19H100.5V25ZM95.5555 25L89.6509 23.9345L88.3759 31H95.5555V25ZM95.5556 30.9999H100.5V18.9999H95.5556V30.9999ZM106.321 26.4551L108.821 16.4552L97.1793 13.5448L94.6793 23.5447L106.321 26.4551ZM103 9L23.0001 9V21L103 21V9ZM17.1793 13.5448L14.6793 23.5447L26.321 26.4551L28.821 16.4552L17.1793 13.5448ZM14.671 23.5782L4.671 64.578L16.3292 67.4215L26.3292 26.4217L14.671 23.5782ZM4.50012 65.9997V65.9999H16.5001V65.9997H4.50012ZM4.67929 64.5446L2.17917 74.5444L13.8208 77.455L16.321 67.4552L4.67929 64.5446ZM8 81.9997H88.0001V69.9997H8L8 81.9997ZM93.821 77.455L96.321 67.4553L84.6793 64.5448L82.1793 74.5445L93.821 77.455ZM96.5001 66V65.9997H84.5001V66H96.5001ZM96.3292 67.4215L106.329 26.4218L94.671 23.5783L84.671 64.578L96.3292 67.4215ZM100.5 19H95.5555V31H100.5V19ZM89.6509 23.9344L89.6509 23.9345L101.46 26.0655L101.46 26.0654L89.6509 23.9344Z" fill="white" mask="url(#path-3-outside-2_758_228)"/>
</svg>
