<svg width="500" height="500" viewBox="0 0 500 500" fill="none" xmlns="http://www.w3.org/2000/svg">
<g clip-path="url(#clip0)">
<path fill-rule="evenodd" clip-rule="evenodd" d="M196.797 192.441C143.158 191.016 140.753 195.408 140.429 202.535C140.016 211.635 176.464 211.225 201.623 210.943C212.578 210.82 221.392 210.721 224.092 211.441C226.607 212.112 230.447 213.861 234.727 215.81C243.574 219.838 254.301 224.723 259.099 222.722C264.266 220.568 263.846 194.222 196.797 192.441ZM459.059 225.097C447.192 218.447 422.073 215.993 410.997 215.597H392.603C386.077 215.597 372.429 219.753 371.836 225.097C371.243 230.441 375.396 233.41 381.33 234.597C384.78 235.287 391.037 234.171 396.955 233.116C401.215 232.357 405.298 231.628 408.031 231.628C414.557 231.628 424.644 233.41 435.918 236.378C442.379 238.08 450.984 241.731 457.6 244.539C462.528 246.63 466.352 248.253 467.366 248.253C469.739 248.253 475.673 247.659 475.673 241.722C475.673 235.784 473.893 233.41 459.059 225.097ZM345.135 341.471C343.237 375.67 308.743 387.387 291.734 388.97H281.053C278.087 388.97 259.115 384.065 247.232 369.377C237.145 356.908 231.41 342.856 231.212 334.939C231.212 318.908 249.012 317.127 250.792 326.627C250.199 362.845 274.526 368.013 292.92 369.377C308.941 370.564 324.961 352.752 325.555 341.471C326.086 331.377 345.135 331.377 345.135 341.471ZM166.536 316.534C178.661 316.534 188.49 306.698 188.49 294.565C188.49 282.432 178.661 272.597 166.536 272.597C154.412 272.597 144.582 282.432 144.582 294.565C144.582 306.698 154.412 316.534 166.536 316.534ZM456.685 336.721C468.482 336.721 478.046 327.151 478.046 315.346C478.046 303.541 468.482 293.971 456.685 293.971C444.888 293.971 435.325 303.541 435.325 315.346C435.325 327.151 444.888 336.721 456.685 336.721Z" fill="#664500"/>
<path fill-rule="evenodd" clip-rule="evenodd" d="M139.836 77.2552C181.964 67.3595 261.473 48.7555 327.335 68.349C359.969 75.4739 448.734 111.098 500 217.972V438.844C496.835 445.969 491.693 462.238 496.44 470.313C501.187 478.388 493.671 493.469 489.32 500H235.959C185.551 479.021 81.5822 409.395 68.9707 298.721C88.5335 272.981 113.823 233.442 123.815 165.723C131.027 116.844 115.508 92.0987 110.761 86.1613L139.836 77.2552ZM196.797 192.441C143.158 191.016 140.753 195.408 140.429 202.535C140.016 211.635 176.464 211.225 201.623 210.943C212.578 210.82 221.392 210.721 224.092 211.441C226.607 212.112 230.447 213.861 234.727 215.81C243.574 219.838 254.301 224.723 259.099 222.722C264.266 220.568 263.846 194.222 196.797 192.441ZM188.49 294.565C188.49 306.698 178.661 316.534 166.536 316.534C154.412 316.534 144.582 306.698 144.582 294.565C144.582 282.432 154.412 272.597 166.536 272.597C178.661 272.597 188.49 282.432 188.49 294.565ZM345.135 341.471C343.237 375.67 308.743 387.387 291.734 388.97H281.053C278.087 388.97 259.115 384.065 247.232 369.377C237.145 356.908 231.41 342.856 231.212 334.939C231.212 318.908 249.012 317.127 250.792 326.627C250.199 362.845 274.526 368.013 292.92 369.377C308.941 370.564 324.961 352.752 325.555 341.471C326.086 331.377 345.135 331.377 345.135 341.471ZM478.046 315.346C478.046 327.151 468.482 336.721 456.685 336.721C444.888 336.721 435.325 327.151 435.325 315.346C435.325 303.541 444.888 293.971 456.685 293.971C468.482 293.971 478.046 303.541 478.046 315.346ZM459.059 225.097C447.192 218.447 422.073 215.993 410.997 215.597H392.603C386.077 215.597 372.429 219.753 371.836 225.097C371.243 230.441 375.396 233.41 381.33 234.597C384.78 235.287 391.037 234.171 396.955 233.116C401.215 232.357 405.298 231.628 408.031 231.628C414.557 231.628 424.644 233.41 435.918 236.378C442.379 238.08 450.984 241.731 457.6 244.539C462.528 246.63 466.352 248.253 467.366 248.253C469.739 248.253 475.673 247.659 475.673 241.722C475.673 235.784 473.893 233.41 459.059 225.097Z" fill="#FFCC4D"/>
<path d="M123.815 165.723C131.027 116.844 115.508 92.0987 110.761 86.1613L139.836 77.2552C131.697 69.4003 123.763 62.2969 116.071 55.8804C60.5028 9.5273 15.9836 -1.04309 0 0V28C40.3479 31.8 83.2695 65.1824 98.8944 81.4114C91.1808 76.8593 67.3281 75.4739 33.6258 106.349C-8.5022 144.942 0.398075 173.441 1.58478 264.284C2.53414 336.958 9.10056 362.648 12.2651 366.408C16.4186 365.22 34.24 344.01 53.2064 318.908C57.5204 313.199 62.9767 306.608 68.9707 298.721C88.5335 272.981 113.823 233.442 123.815 165.723Z" fill="#78B454"/>
<path d="M139.836 77.2552C181.964 67.3595 261.473 48.7555 327.335 68.349C336.631 59.4429 349.882 36.2869 348.695 31.537C347.509 26.787 319.621 28.5682 314.281 37.4744C311.077 42.8181 243.672 24.412 209.258 25.5995C174.843 26.787 147.488 27.9745 116.071 55.8804C123.763 62.2969 131.697 69.4003 139.836 77.2552Z" fill="#5C9238"/>
</g>
<defs>
<clipPath id="clip0">
<rect width="500" height="500" fill="white"/>
</clipPath>
</defs>
</svg>
