<svg width="118" height="117" viewBox="0 0 118 117" fill="none" xmlns="http://www.w3.org/2000/svg">
<mask id="path-1-outside-1_742_81" maskUnits="userSpaceOnUse" x="31" y="0" width="87" height="86" fill="black">
<rect fill="white" x="31" width="87" height="86"/>
<path fill-rule="evenodd" clip-rule="evenodd" d="M112 6V21V56H97V31.4016L51.0591 77.3425L40.4525 66.7359L86.1884 21H62V6L97 6H112Z"/>
</mask>
<path fill-rule="evenodd" clip-rule="evenodd" d="M112 6V21V56H97V31.4016L51.0591 77.3425L40.4525 66.7359L86.1884 21H62V6L97 6H112Z" fill="black"/>
<path d="M112 6H118V0H112V6ZM112 56V62H118V56H112ZM97 56H91V62H97V56ZM97 31.4016H103V16.9163L92.7574 27.159L97 31.4016ZM51.0591 77.3425L46.8165 81.5851L51.0591 85.8278L55.3018 81.5851L51.0591 77.3425ZM40.4525 66.7359L36.2099 62.4932L31.9673 66.7359L36.2099 70.9785L40.4525 66.7359ZM86.1884 21L90.4311 25.2426L100.674 15H86.1884V21ZM62 21H56V27H62V21ZM62 6V0H56V6H62ZM118 21V6H106V21H118ZM118 56V21H106V56H118ZM97 62H112V50H97V62ZM91 31.4016V56H103V31.4016H91ZM92.7574 27.159L46.8165 73.0998L55.3018 81.5851L101.243 35.6443L92.7574 27.159ZM55.3018 73.0998L44.6952 62.4932L36.2099 70.9785L46.8165 81.5851L55.3018 73.0998ZM44.6952 70.9785L90.4311 25.2426L81.9458 16.7574L36.2099 62.4932L44.6952 70.9785ZM62 27H86.1884V15L62 15V27ZM56 6V21H68V6L56 6ZM97 0L62 0V12L97 12V0ZM112 0H97V12H112V0Z" fill="white" mask="url(#path-1-outside-1_742_81)"/>
<mask id="path-3-outside-2_742_81" maskUnits="userSpaceOnUse" x="0" y="25" width="93" height="92" fill="black">
<rect fill="white" y="25" width="93" height="92"/>
<path fill-rule="evenodd" clip-rule="evenodd" d="M21 31H6L6 96L6 111H87V97.0001V96V72.0001H72V96H21V46H46V31H21Z"/>
</mask>
<path fill-rule="evenodd" clip-rule="evenodd" d="M21 31H6L6 96L6 111H87V97.0001V96V72.0001H72V96H21V46H46V31H21Z" fill="black"/>
<path d="M6 31V25H0V31H6ZM6 111H0V117H6V111ZM87 111V117H93V111H87ZM87 72.0001H93V66.0001H87V72.0001ZM72 72.0001V66.0001H66V72.0001H72ZM72 96V102H78V96H72ZM21 96H15V102H21V96ZM21 46V40H15V46H21ZM46 46V52H52V46H46ZM46 31H52V25H46V31ZM6 37H21V25H6V37ZM12 96L12 31H0L0 96H12ZM12 111L12 96H0L0 111H12ZM87 105H6V117H87V105ZM81 97.0001V111H93V97.0001H81ZM81 96V97.0001H93V96H81ZM93 96V72.0001H81V96H93ZM87 66.0001H72V78.0001H87V66.0001ZM66 72.0001V96H78V72.0001H66ZM21 102H72V90H21V102ZM15 46L15 96H27L27 46H15ZM46 40H21V52H46V40ZM40 31V46H52V31H40ZM21 37H46V25H21V37Z" fill="white" mask="url(#path-3-outside-2_742_81)"/>
</svg>
