<svg width="27" height="27" viewBox="0 0 27 27" fill="none" xmlns="http://www.w3.org/2000/svg">
<g filter="url(#filter0_f_1317_58)">
<path d="M12.3112 5.65881C12.6854 4.50717 14.3146 4.50718 14.6888 5.65881L16.0258 9.77356C16.1931 10.2886 16.6731 10.6373 17.2146 10.6373H21.5411C22.752 10.6373 23.2555 12.1868 22.2758 12.8986L18.7756 15.4416C18.3375 15.7599 18.1542 16.3241 18.3215 16.8392L19.6585 20.9539C20.0327 22.1055 18.7146 23.0632 17.7349 22.3514L14.2347 19.8084C13.7966 19.4901 13.2034 19.4901 12.7653 19.8084L9.26506 22.3514C8.28541 23.0632 6.96732 22.1055 7.3415 20.9539L8.67847 16.8392C8.84581 16.3241 8.66249 15.7599 8.22438 15.4416L4.72416 12.8986C3.74452 12.1868 4.24799 10.6373 5.4589 10.6373H9.7854C10.3269 10.6373 10.8069 10.2886 10.9742 9.77356L12.3112 5.65881Z" fill="#FFC700"/>
</g>
<path d="M12.3112 5.65881C12.6854 4.50717 14.3146 4.50718 14.6888 5.65881L16.0258 9.77356C16.1931 10.2886 16.6731 10.6373 17.2146 10.6373H21.5411C22.752 10.6373 23.2555 12.1868 22.2758 12.8986L18.7756 15.4416C18.3375 15.7599 18.1542 16.3241 18.3215 16.8392L19.6585 20.9539C20.0327 22.1055 18.7146 23.0632 17.7349 22.3514L14.2347 19.8084C13.7966 19.4901 13.2034 19.4901 12.7653 19.8084L9.26506 22.3514C8.28541 23.0632 6.96732 22.1055 7.3415 20.9539L8.67847 16.8392C8.84581 16.3241 8.66249 15.7599 8.22438 15.4416L4.72416 12.8986C3.74452 12.1868 4.24799 10.6373 5.4589 10.6373H9.7854C10.3269 10.6373 10.8069 10.2886 10.9742 9.77356L12.3112 5.65881Z" fill="#FFC700"/>
<defs>
<filter id="filter0_f_1317_58" x="0.206482" y="0.794922" width="26.587" height="25.8008" filterUnits="userSpaceOnUse" color-interpolation-filters="sRGB">
<feFlood flood-opacity="0" result="BackgroundImageFix"/>
<feBlend mode="normal" in="SourceGraphic" in2="BackgroundImageFix" result="shape"/>
<feGaussianBlur stdDeviation="2" result="effect1_foregroundBlur_1317_58"/>
</filter>
</defs>
</svg>
