<svg width="45" height="45" viewBox="0 0 45 45" fill="none" xmlns="http://www.w3.org/2000/svg">
<mask id="path-1-outside-1_606_5" maskUnits="userSpaceOnUse" x="-11.5446" y="-11.8982" width="69.2965" height="69.2965" fill="black">
<rect fill="white" x="-11.5446" y="-11.8982" width="69.2965" height="69.2965"/>
<path fill-rule="evenodd" clip-rule="evenodd" d="M5.07237 10.3756L10.3757 5.07233L22.75 17.4467L35.1244 5.07233L40.4277 10.3756L28.0533 22.75L40.4277 35.1244L35.1244 40.4277L22.75 28.0533L10.3757 40.4277L5.07237 35.1244L17.4467 22.75L5.07237 10.3756Z"/>
</mask>
<path fill-rule="evenodd" clip-rule="evenodd" d="M5.07237 10.3756L10.3757 5.07233L22.75 17.4467L35.1244 5.07233L40.4277 10.3756L28.0533 22.75L40.4277 35.1244L35.1244 40.4277L22.75 28.0533L10.3757 40.4277L5.07237 35.1244L17.4467 22.75L5.07237 10.3756Z" fill="black"/>
<path d="M10.3757 5.07233L12.497 2.95101L10.3757 0.82969L8.25435 2.95101L10.3757 5.07233ZM5.07237 10.3756L2.95105 8.25431L0.829726 10.3756L2.95105 12.497L5.07237 10.3756ZM22.75 17.4467L20.6287 19.568L22.75 21.6893L24.8714 19.568L22.75 17.4467ZM35.1244 5.07233L37.2457 2.95101L35.1244 0.82969L33.0031 2.95101L35.1244 5.07233ZM40.4277 10.3756L42.549 12.497L44.6703 10.3756L42.549 8.25431L40.4277 10.3756ZM28.0533 22.75L25.932 20.6287L23.8107 22.75L25.932 24.8713L28.0533 22.75ZM40.4277 35.1244L42.549 37.2457L44.6703 35.1244L42.549 33.003L40.4277 35.1244ZM35.1244 40.4277L33.0031 42.549L35.1244 44.6703L37.2457 42.549L35.1244 40.4277ZM22.75 28.0533L24.8714 25.932L22.75 23.8107L20.6287 25.932L22.75 28.0533ZM10.3757 40.4277L8.25435 42.549L10.3757 44.6703L12.497 42.549L10.3757 40.4277ZM5.07237 35.1244L2.95105 33.003L0.829726 35.1244L2.95105 37.2457L5.07237 35.1244ZM17.4467 22.75L19.5681 24.8713L21.6894 22.75L19.5681 20.6287L17.4467 22.75ZM8.25435 2.95101L2.95105 8.25431L7.19369 12.497L12.497 7.19365L8.25435 2.95101ZM24.8714 15.3254L12.497 2.95101L8.25435 7.19365L20.6287 19.568L24.8714 15.3254ZM24.8714 19.568L37.2457 7.19365L33.0031 2.95101L20.6287 15.3254L24.8714 19.568ZM33.0031 7.19365L38.3064 12.497L42.549 8.25431L37.2457 2.95101L33.0031 7.19365ZM38.3064 8.25431L25.932 20.6287L30.1747 24.8713L42.549 12.497L38.3064 8.25431ZM25.932 24.8713L38.3064 37.2457L42.549 33.003L30.1747 20.6287L25.932 24.8713ZM38.3064 33.003L33.0031 38.3063L37.2457 42.549L42.549 37.2457L38.3064 33.003ZM37.2457 38.3063L24.8714 25.932L20.6287 30.1746L33.0031 42.549L37.2457 38.3063ZM20.6287 25.932L8.25435 38.3063L12.497 42.549L24.8714 30.1746L20.6287 25.932ZM12.497 38.3063L7.19369 33.003L2.95105 37.2457L8.25435 42.549L12.497 38.3063ZM7.19369 37.2457L19.5681 24.8713L15.3254 20.6287L2.95105 33.003L7.19369 37.2457ZM2.95105 12.497L15.3254 24.8713L19.5681 20.6287L7.19369 8.25431L2.95105 12.497Z" fill="white" mask="url(#path-1-outside-1_606_5)"/>
</svg>
